<mxfile host="app.diagrams.net" modified="2020-09-30T02:22:28.152Z" agent="5.0 (X11; Linux x86_64) AppleWebKit/537.36 (KHTML, like Gecko) Chrome/85.0.4183.102 Safari/537.36" etag="tgZ7H-rYq1Nv2KYVW7F6" version="13.7.5" type="github">
  <diagram name="Page-1" id="03018318-947c-dd8e-b7a3-06fadd420f32">
    <mxGraphModel dx="2455" dy="2506" grid="1" gridSize="10" guides="1" tooltips="1" connect="1" arrows="1" fold="1" page="1" pageScale="1" pageWidth="1100" pageHeight="850" background="#ffffff" math="0" shadow="0">
      <root>
        <mxCell id="0" />
        <mxCell id="1" parent="0" />
        <mxCell id="72ID4uftPXcUlblIOjhe-219" value="" style="whiteSpace=wrap;html=1;rounded=0;shadow=0;labelBackgroundColor=none;strokeColor=#000000;strokeWidth=1;fillColor=none;fontFamily=Verdana;fontSize=12;fontColor=#000000;align=center;comic=1;" vertex="1" parent="1">
          <mxGeometry x="2250" y="-920" width="1060" height="810" as="geometry" />
        </mxCell>
        <mxCell id="72ID4uftPXcUlblIOjhe-166" value="" style="whiteSpace=wrap;html=1;rounded=0;shadow=0;labelBackgroundColor=none;strokeWidth=1;fillColor=none;fontFamily=Verdana;fontSize=12;align=center;comic=1;" vertex="1" parent="1">
          <mxGeometry x="1480" y="970" width="570" height="590" as="geometry" />
        </mxCell>
        <mxCell id="72ID4uftPXcUlblIOjhe-202" value="" style="rounded=0;whiteSpace=wrap;html=1;strokeWidth=5;fontSize=19;align=left;strokeColor=#00FFFF;" vertex="1" parent="1">
          <mxGeometry x="1484.5" y="978" width="550" height="320" as="geometry" />
        </mxCell>
        <mxCell id="72ID4uftPXcUlblIOjhe-162" value="" style="rounded=0;whiteSpace=wrap;html=1;strokeWidth=5;strokeColor=#FF3333;" vertex="1" parent="1">
          <mxGeometry x="257.5" y="1456" width="332.5" height="40" as="geometry" />
        </mxCell>
        <mxCell id="72ID4uftPXcUlblIOjhe-158" value="" style="whiteSpace=wrap;html=1;rounded=0;shadow=0;labelBackgroundColor=none;strokeColor=#000000;strokeWidth=1;fillColor=none;fontFamily=Verdana;fontSize=12;fontColor=#000000;align=center;comic=1;" vertex="1" parent="1">
          <mxGeometry x="70" y="950" width="970" height="620" as="geometry" />
        </mxCell>
        <mxCell id="72ID4uftPXcUlblIOjhe-125" value="" style="whiteSpace=wrap;html=1;rounded=0;shadow=0;labelBackgroundColor=none;strokeWidth=1;fillColor=none;fontFamily=Verdana;fontSize=12;align=center;comic=1;" vertex="1" parent="1">
          <mxGeometry x="249" y="960" width="570" height="590" as="geometry" />
        </mxCell>
        <mxCell id="72ID4uftPXcUlblIOjhe-120" value="" style="rounded=0;whiteSpace=wrap;html=1;strokeWidth=5;strokeColor=#FF00FF;" vertex="1" parent="1">
          <mxGeometry x="840" y="156" width="230" height="604" as="geometry" />
        </mxCell>
        <mxCell id="72ID4uftPXcUlblIOjhe-118" value="" style="rounded=0;whiteSpace=wrap;html=1;strokeWidth=5;strokeColor=#FF1008;" vertex="1" parent="1">
          <mxGeometry x="250" y="160" width="580" height="600" as="geometry" />
        </mxCell>
        <mxCell id="72ID4uftPXcUlblIOjhe-112" value="" style="rounded=0;whiteSpace=wrap;html=1;strokeWidth=5;strokeColor=#FF9933;" vertex="1" parent="1">
          <mxGeometry x="10" y="10" width="1080" height="140" as="geometry" />
        </mxCell>
        <mxCell id="72ID4uftPXcUlblIOjhe-104" value="" style="rounded=0;whiteSpace=wrap;html=1;strokeWidth=5;strokeColor=#2212FF;" vertex="1" parent="1">
          <mxGeometry x="20" y="153" width="220" height="617" as="geometry" />
        </mxCell>
        <mxCell id="677b7b8949515195-25" value="" style="whiteSpace=wrap;html=1;rounded=0;shadow=0;labelBackgroundColor=none;strokeWidth=1;fillColor=none;fontFamily=Verdana;fontSize=12;align=center;comic=1;" parent="1" vertex="1">
          <mxGeometry x="840" y="160" width="230" height="590" as="geometry" />
        </mxCell>
        <mxCell id="72ID4uftPXcUlblIOjhe-96" value="" style="rounded=0;whiteSpace=wrap;html=1;strokeColor=#14FF6A;strokeWidth=5;" vertex="1" parent="1">
          <mxGeometry x="270" y="253" width="530" height="107" as="geometry" />
        </mxCell>
        <mxCell id="677b7b8949515195-1" value="" style="whiteSpace=wrap;html=1;rounded=0;shadow=0;labelBackgroundColor=none;strokeColor=#000000;strokeWidth=1;fillColor=none;fontFamily=Verdana;fontSize=12;fontColor=#000000;align=center;comic=1;" parent="1" vertex="1">
          <mxGeometry x="20" y="20" width="1060" height="810" as="geometry" />
        </mxCell>
        <mxCell id="72ID4uftPXcUlblIOjhe-88" value="" style="whiteSpace=wrap;html=1;rounded=0;shadow=0;labelBackgroundColor=none;strokeWidth=1;fillColor=none;fontFamily=Verdana;fontSize=12;align=center;comic=1;" vertex="1" parent="1">
          <mxGeometry x="250" y="160" width="570" height="590" as="geometry" />
        </mxCell>
        <mxCell id="72ID4uftPXcUlblIOjhe-85" value="" style="rounded=0;whiteSpace=wrap;html=1;strokeWidth=5;strokeColor=#14FF6A;" vertex="1" parent="1">
          <mxGeometry x="1473" y="-790" width="407" height="300" as="geometry" />
        </mxCell>
        <mxCell id="72ID4uftPXcUlblIOjhe-1" value="" style="whiteSpace=wrap;html=1;rounded=0;shadow=0;labelBackgroundColor=none;strokeColor=#000000;strokeWidth=1;fillColor=none;fontFamily=Verdana;fontSize=12;fontColor=#000000;align=center;comic=1;" vertex="1" parent="1">
          <mxGeometry x="10" y="-910" width="1060" height="810" as="geometry" />
        </mxCell>
        <mxCell id="72ID4uftPXcUlblIOjhe-8" value="" style="whiteSpace=wrap;html=1;rounded=0;shadow=0;labelBackgroundColor=none;strokeWidth=1;fillColor=none;fontFamily=Verdana;fontSize=12;align=center;comic=1;" vertex="1" parent="1">
          <mxGeometry x="360" y="-800" width="387" height="590" as="geometry" />
        </mxCell>
        <mxCell id="72ID4uftPXcUlblIOjhe-57" value="" style="rounded=0;whiteSpace=wrap;html=1;strokeWidth=5;strokeColor=#FF2908;" vertex="1" parent="1">
          <mxGeometry x="416.5" y="-380" width="290" height="130" as="geometry" />
        </mxCell>
        <mxCell id="72ID4uftPXcUlblIOjhe-56" value="" style="rounded=0;whiteSpace=wrap;html=1;strokeColor=#2D0DFF;strokeWidth=5;" vertex="1" parent="1">
          <mxGeometry x="415" y="-550" width="285" height="150" as="geometry" />
        </mxCell>
        <mxCell id="677b7b8949515195-2" value="LOGO" style="whiteSpace=wrap;html=1;rounded=0;shadow=0;labelBackgroundColor=none;strokeWidth=1;fontFamily=Verdana;fontSize=28;align=center;comic=1;" parent="1" vertex="1">
          <mxGeometry x="40" y="60" width="190" height="50" as="geometry" />
        </mxCell>
        <mxCell id="677b7b8949515195-3" value="Search" style="strokeWidth=1;shadow=0;dashed=0;align=center;html=1;shape=mxgraph.mockup.forms.searchBox;strokeColor=#999999;mainText=;strokeColor2=#008cff;fontColor=#666666;fontSize=17;align=left;spacingLeft=3;rounded=0;labelBackgroundColor=none;comic=1;" parent="1" vertex="1">
          <mxGeometry x="860" y="230" width="190" height="23" as="geometry" />
        </mxCell>
        <mxCell id="677b7b8949515195-8" value="" style="whiteSpace=wrap;html=1;rounded=0;shadow=0;labelBackgroundColor=none;strokeWidth=1;fillColor=none;fontFamily=Verdana;fontSize=12;align=center;comic=1;" parent="1" vertex="1">
          <mxGeometry x="30" y="160" width="200" height="590" as="geometry" />
        </mxCell>
        <mxCell id="677b7b8949515195-9" value="" style="line;strokeWidth=1;html=1;rounded=0;shadow=0;labelBackgroundColor=none;fillColor=none;fontFamily=Verdana;fontSize=14;fontColor=#000000;align=center;comic=1;" parent="1" vertex="1">
          <mxGeometry x="20" y="140" width="1060" height="10" as="geometry" />
        </mxCell>
        <mxCell id="677b7b8949515195-14" value="Section 4" style="text;html=1;points=[];align=left;verticalAlign=top;spacingTop=-4;fontSize=14;fontFamily=Verdana" parent="1" vertex="1">
          <mxGeometry x="860" y="260" width="60" height="20" as="geometry" />
        </mxCell>
        <mxCell id="677b7b8949515195-15" value="&lt;div style=&quot;text-align: justify&quot;&gt;기여자 : 조 이름, 조원&lt;/div&gt;" style="whiteSpace=wrap;html=1;rounded=0;shadow=0;labelBackgroundColor=none;strokeWidth=1;fillColor=none;fontFamily=Verdana;fontSize=12;align=center;verticalAlign=top;spacing=10;comic=1;" parent="1" vertex="1">
          <mxGeometry x="250" y="770" width="580" height="50" as="geometry" />
        </mxCell>
        <mxCell id="72ID4uftPXcUlblIOjhe-41" value="" style="verticalLabelPosition=bottom;shadow=0;dashed=0;align=center;html=1;verticalAlign=top;strokeWidth=1;shape=mxgraph.mockup.graphics.simpleIcon;strokeColor=#999999;" vertex="1" parent="1">
          <mxGeometry x="430" y="-750" width="263" height="180" as="geometry" />
        </mxCell>
        <mxCell id="72ID4uftPXcUlblIOjhe-43" value="********" style="strokeWidth=1;shadow=0;dashed=0;align=center;html=1;shape=mxgraph.mockup.forms.pwField;strokeColor=#999999;mainText=;align=left;fontColor=#666666;fontSize=17;spacingLeft=3;" vertex="1" parent="1">
          <mxGeometry x="441.5" y="-449" width="240" height="30" as="geometry" />
        </mxCell>
        <mxCell id="72ID4uftPXcUlblIOjhe-44" value="이메일을 입력해주세요" style="strokeWidth=1;shadow=0;dashed=0;align=center;html=1;shape=mxgraph.mockup.text.textBox;fontColor=#666666;align=left;fontSize=17;spacingLeft=4;spacingTop=-3;strokeColor=#666666;mainText=" vertex="1" parent="1">
          <mxGeometry x="441.5" y="-520" width="238.5" height="30" as="geometry" />
        </mxCell>
        <mxCell id="72ID4uftPXcUlblIOjhe-45" value="Signin" style="strokeWidth=1;shadow=0;dashed=0;align=center;html=1;shape=mxgraph.mockup.buttons.button;strokeColor=#666666;fontColor=#ffffff;mainText=;buttonStyle=round;fontSize=17;fontStyle=1;fillColor=#008cff;whiteSpace=wrap;" vertex="1" parent="1">
          <mxGeometry x="441.5" y="-380" width="238.5" height="40" as="geometry" />
        </mxCell>
        <mxCell id="72ID4uftPXcUlblIOjhe-47" value="Naver" style="strokeWidth=1;shadow=0;dashed=0;align=center;html=1;shape=mxgraph.mockup.buttons.button;strokeColor=#666666;fontColor=#ffffff;mainText=;buttonStyle=round;fontSize=17;fontStyle=1;fillColor=#008cff;whiteSpace=wrap;" vertex="1" parent="1">
          <mxGeometry x="441.5" y="-310" width="108.5" height="50" as="geometry" />
        </mxCell>
        <mxCell id="72ID4uftPXcUlblIOjhe-48" value="Git Hub" style="strokeWidth=1;shadow=0;dashed=0;align=center;html=1;shape=mxgraph.mockup.buttons.button;strokeColor=#666666;fontColor=#ffffff;mainText=;buttonStyle=round;fontSize=17;fontStyle=1;fillColor=#008cff;whiteSpace=wrap;" vertex="1" parent="1">
          <mxGeometry x="574.5" y="-310" width="108.5" height="50" as="geometry" />
        </mxCell>
        <mxCell id="72ID4uftPXcUlblIOjhe-49" value="&amp;lt;클래스 네임&amp;gt;" style="text;html=1;strokeColor=none;fillColor=none;align=center;verticalAlign=middle;whiteSpace=wrap;rounded=0;" vertex="1" parent="1">
          <mxGeometry x="440" y="-540" width="90" height="20" as="geometry" />
        </mxCell>
        <mxCell id="72ID4uftPXcUlblIOjhe-50" value="&amp;lt;클래스 네임&amp;gt;" style="text;html=1;strokeColor=none;fillColor=none;align=center;verticalAlign=middle;whiteSpace=wrap;rounded=0;" vertex="1" parent="1">
          <mxGeometry x="440" y="-469" width="90" height="20" as="geometry" />
        </mxCell>
        <mxCell id="72ID4uftPXcUlblIOjhe-51" value="&amp;lt;클래스 네임&amp;gt;" style="text;html=1;strokeColor=none;fillColor=none;align=center;verticalAlign=middle;whiteSpace=wrap;rounded=0;" vertex="1" parent="1">
          <mxGeometry x="360" y="-370" width="90" height="20" as="geometry" />
        </mxCell>
        <mxCell id="72ID4uftPXcUlblIOjhe-52" value="&amp;lt;클래스 네임&amp;gt;" style="text;html=1;strokeColor=none;fillColor=none;align=center;verticalAlign=middle;whiteSpace=wrap;rounded=0;" vertex="1" parent="1">
          <mxGeometry x="447" y="-330" width="90" height="20" as="geometry" />
        </mxCell>
        <mxCell id="72ID4uftPXcUlblIOjhe-53" value="&amp;lt;클래스 네임&amp;gt;" style="text;html=1;strokeColor=none;fillColor=none;align=center;verticalAlign=middle;whiteSpace=wrap;rounded=0;" vertex="1" parent="1">
          <mxGeometry x="574.5" y="-330" width="90" height="20" as="geometry" />
        </mxCell>
        <mxCell id="72ID4uftPXcUlblIOjhe-54" value="&amp;lt;클래스 네임&amp;gt;" style="text;html=1;strokeColor=none;fillColor=none;align=center;verticalAlign=middle;whiteSpace=wrap;rounded=0;" vertex="1" parent="1">
          <mxGeometry x="357" y="-830" width="90" height="20" as="geometry" />
        </mxCell>
        <mxCell id="72ID4uftPXcUlblIOjhe-55" value="&amp;lt;클래스 네임&amp;gt;" style="text;html=1;strokeColor=none;fillColor=none;align=center;verticalAlign=middle;whiteSpace=wrap;rounded=0;" vertex="1" parent="1">
          <mxGeometry x="430" y="-780" width="90" height="20" as="geometry" />
        </mxCell>
        <mxCell id="72ID4uftPXcUlblIOjhe-58" value="&amp;lt;클래스 네임&amp;gt;" style="text;html=1;strokeColor=none;fillColor=none;align=center;verticalAlign=middle;whiteSpace=wrap;rounded=0;" vertex="1" parent="1">
          <mxGeometry x="380" y="-570" width="90" height="20" as="geometry" />
        </mxCell>
        <mxCell id="72ID4uftPXcUlblIOjhe-59" value="&amp;lt;클래스 네임&amp;gt;" style="text;html=1;strokeColor=none;fillColor=none;align=center;verticalAlign=middle;whiteSpace=wrap;rounded=0;" vertex="1" parent="1">
          <mxGeometry x="410" y="-400" width="90" height="20" as="geometry" />
        </mxCell>
        <mxCell id="72ID4uftPXcUlblIOjhe-60" value="" style="whiteSpace=wrap;html=1;rounded=0;shadow=0;labelBackgroundColor=none;strokeColor=#000000;strokeWidth=1;fillColor=none;fontFamily=Verdana;fontSize=12;fontColor=#000000;align=center;comic=1;" vertex="1" parent="1">
          <mxGeometry x="1120" y="-920" width="1060" height="810" as="geometry" />
        </mxCell>
        <mxCell id="72ID4uftPXcUlblIOjhe-61" value="" style="whiteSpace=wrap;html=1;rounded=0;shadow=0;labelBackgroundColor=none;strokeWidth=1;fillColor=none;fontFamily=Verdana;fontSize=12;align=center;comic=1;" vertex="1" parent="1">
          <mxGeometry x="1443" y="-830" width="467" height="620" as="geometry" />
        </mxCell>
        <mxCell id="72ID4uftPXcUlblIOjhe-62" value="" style="rounded=0;whiteSpace=wrap;html=1;strokeWidth=5;strokeColor=#FF2908;" vertex="1" parent="1">
          <mxGeometry x="1494.5" y="-770" width="365.5" height="190" as="geometry" />
        </mxCell>
        <mxCell id="72ID4uftPXcUlblIOjhe-63" value="" style="rounded=0;whiteSpace=wrap;html=1;strokeColor=#2D0DFF;strokeWidth=5;" vertex="1" parent="1">
          <mxGeometry x="1514" y="-480" width="312" height="140" as="geometry" />
        </mxCell>
        <mxCell id="72ID4uftPXcUlblIOjhe-65" value="********" style="strokeWidth=1;shadow=0;dashed=0;align=center;html=1;shape=mxgraph.mockup.forms.pwField;strokeColor=#999999;mainText=;align=left;fontColor=#666666;fontSize=17;spacingLeft=3;" vertex="1" parent="1">
          <mxGeometry x="1528.5" y="-690" width="181.5" height="30" as="geometry" />
        </mxCell>
        <mxCell id="72ID4uftPXcUlblIOjhe-66" value="이메일을 입력해주세요" style="strokeWidth=1;shadow=0;dashed=0;align=center;html=1;shape=mxgraph.mockup.text.textBox;fontColor=#666666;align=left;fontSize=17;spacingLeft=4;spacingTop=-3;strokeColor=#666666;mainText=" vertex="1" parent="1">
          <mxGeometry x="1530" y="-740" width="290" height="30" as="geometry" />
        </mxCell>
        <mxCell id="72ID4uftPXcUlblIOjhe-67" value="Signin" style="strokeWidth=1;shadow=0;dashed=0;align=center;html=1;shape=mxgraph.mockup.buttons.button;strokeColor=#666666;fontColor=#ffffff;mainText=;buttonStyle=round;fontSize=17;fontStyle=1;fillColor=#008cff;whiteSpace=wrap;" vertex="1" parent="1">
          <mxGeometry x="1536.5" y="-540" width="238.5" height="40" as="geometry" />
        </mxCell>
        <mxCell id="72ID4uftPXcUlblIOjhe-68" value="Naver" style="strokeWidth=1;shadow=0;dashed=0;align=center;html=1;shape=mxgraph.mockup.buttons.button;strokeColor=#666666;fontColor=#ffffff;mainText=;buttonStyle=round;fontSize=17;fontStyle=1;fillColor=#008cff;whiteSpace=wrap;" vertex="1" parent="1">
          <mxGeometry x="1546.75" y="-453.5" width="239.25" height="39" as="geometry" />
        </mxCell>
        <mxCell id="72ID4uftPXcUlblIOjhe-69" value="Git Hub" style="strokeWidth=1;shadow=0;dashed=0;align=center;html=1;shape=mxgraph.mockup.buttons.button;strokeColor=#666666;fontColor=#ffffff;mainText=;buttonStyle=round;fontSize=17;fontStyle=1;fillColor=#008cff;whiteSpace=wrap;" vertex="1" parent="1">
          <mxGeometry x="1546.75" y="-400" width="243.5" height="40" as="geometry" />
        </mxCell>
        <mxCell id="72ID4uftPXcUlblIOjhe-70" value="&amp;lt;클래스 네임&amp;gt;" style="text;html=1;strokeColor=none;fillColor=none;align=center;verticalAlign=middle;whiteSpace=wrap;rounded=0;" vertex="1" parent="1">
          <mxGeometry x="1550" y="-560" width="90" height="20" as="geometry" />
        </mxCell>
        <mxCell id="72ID4uftPXcUlblIOjhe-71" value="&amp;lt;클래스 네임&amp;gt;" style="text;html=1;strokeColor=none;fillColor=none;align=center;verticalAlign=middle;whiteSpace=wrap;rounded=0;" vertex="1" parent="1">
          <mxGeometry x="1520" y="-650" width="90" height="20" as="geometry" />
        </mxCell>
        <mxCell id="72ID4uftPXcUlblIOjhe-72" value="&amp;lt;클래스 네임&amp;gt;" style="text;html=1;strokeColor=none;fillColor=none;align=center;verticalAlign=middle;whiteSpace=wrap;rounded=0;" vertex="1" parent="1">
          <mxGeometry x="1556" y="-473.5" width="90" height="20" as="geometry" />
        </mxCell>
        <mxCell id="72ID4uftPXcUlblIOjhe-73" value="&amp;lt;클래스 네임&amp;gt;" style="text;html=1;strokeColor=none;fillColor=none;align=center;verticalAlign=middle;whiteSpace=wrap;rounded=0;" vertex="1" parent="1">
          <mxGeometry x="1546.75" y="-414.5" width="90" height="20" as="geometry" />
        </mxCell>
        <mxCell id="72ID4uftPXcUlblIOjhe-74" value="&amp;lt;클래스 네임&amp;gt;" style="text;html=1;strokeColor=none;fillColor=none;align=center;verticalAlign=middle;whiteSpace=wrap;rounded=0;" vertex="1" parent="1">
          <mxGeometry x="1424" y="-453.5" width="90" height="20" as="geometry" />
        </mxCell>
        <mxCell id="72ID4uftPXcUlblIOjhe-75" value="&amp;lt;클래스 네임&amp;gt;" style="text;html=1;strokeColor=none;fillColor=none;align=center;verticalAlign=middle;whiteSpace=wrap;rounded=0;" vertex="1" parent="1">
          <mxGeometry x="1494.5" y="-820" width="90" height="20" as="geometry" />
        </mxCell>
        <mxCell id="72ID4uftPXcUlblIOjhe-76" value="&amp;lt;클래스 네임&amp;gt;" style="text;html=1;strokeColor=none;fillColor=none;align=center;verticalAlign=middle;whiteSpace=wrap;rounded=0;" vertex="1" parent="1">
          <mxGeometry x="1528.5" y="-760" width="90" height="20" as="geometry" />
        </mxCell>
        <mxCell id="72ID4uftPXcUlblIOjhe-77" value="&amp;lt;클래스 네임&amp;gt;" style="text;html=1;strokeColor=none;fillColor=none;align=center;verticalAlign=middle;whiteSpace=wrap;rounded=0;" vertex="1" parent="1">
          <mxGeometry x="1528.5" y="-710" width="90" height="20" as="geometry" />
        </mxCell>
        <mxCell id="72ID4uftPXcUlblIOjhe-78" value="&amp;lt;클래스 네임&amp;gt;" style="text;html=1;strokeColor=none;fillColor=none;align=center;verticalAlign=middle;whiteSpace=wrap;rounded=0;" vertex="1" parent="1">
          <mxGeometry x="1720" y="-710" width="90" height="20" as="geometry" />
        </mxCell>
        <mxCell id="72ID4uftPXcUlblIOjhe-79" value="********" style="strokeWidth=1;shadow=0;dashed=0;align=center;html=1;shape=mxgraph.mockup.forms.pwField;strokeColor=#999999;mainText=;align=left;fontColor=#666666;fontSize=17;spacingLeft=3;" vertex="1" parent="1">
          <mxGeometry x="1528.5" y="-630" width="301.5" height="30" as="geometry" />
        </mxCell>
        <mxCell id="72ID4uftPXcUlblIOjhe-81" value="" style="strokeWidth=1;shadow=0;dashed=0;align=center;html=1;shape=mxgraph.mockup.buttons.multiButton;fillColor=#008cff;strokeColor=#666666;mainText=;subText=;" vertex="1" parent="1">
          <mxGeometry x="1735" y="-690" width="90" height="30" as="geometry" />
        </mxCell>
        <mxCell id="72ID4uftPXcUlblIOjhe-82" value="중복확인" style="strokeWidth=1;shadow=0;dashed=0;align=center;html=1;shape=mxgraph.mockup.anchor;fontSize=16;fontColor=#ffffff;fontStyle=1;whiteSpace=wrap;" vertex="1" parent="72ID4uftPXcUlblIOjhe-81">
          <mxGeometry y="4.800000000000001" width="90" height="12" as="geometry" />
        </mxCell>
        <mxCell id="72ID4uftPXcUlblIOjhe-86" value="로그아웃" style="strokeWidth=1;shadow=0;dashed=0;align=center;html=1;shape=mxgraph.mockup.buttons.button;strokeColor=#666666;fontColor=#ffffff;mainText=;buttonStyle=round;fontSize=17;fontStyle=1;fillColor=#008cff;whiteSpace=wrap;" vertex="1" parent="1">
          <mxGeometry x="790" y="60" width="130" height="60" as="geometry" />
        </mxCell>
        <mxCell id="72ID4uftPXcUlblIOjhe-87" value="마이페이지" style="strokeWidth=1;shadow=0;dashed=0;align=center;html=1;shape=mxgraph.mockup.buttons.button;strokeColor=#666666;fontColor=#ffffff;mainText=;buttonStyle=round;fontSize=17;fontStyle=1;fillColor=#008cff;whiteSpace=wrap;" vertex="1" parent="1">
          <mxGeometry x="940" y="60" width="130" height="60" as="geometry" />
        </mxCell>
        <mxCell id="72ID4uftPXcUlblIOjhe-89" value="새글쓰기" style="strokeWidth=1;shadow=0;dashed=0;align=center;html=1;shape=mxgraph.mockup.buttons.button;strokeColor=#666666;fontColor=#ffffff;mainText=;buttonStyle=round;fontSize=17;fontStyle=1;fillColor=#008cff;whiteSpace=wrap;" vertex="1" parent="1">
          <mxGeometry x="270" y="185" width="140" height="44" as="geometry" />
        </mxCell>
        <mxCell id="72ID4uftPXcUlblIOjhe-90" value="" style="line;strokeWidth=1;html=1;rounded=0;shadow=0;labelBackgroundColor=none;fillColor=none;fontFamily=Verdana;fontSize=14;fontColor=#000000;align=center;comic=1;" vertex="1" parent="1">
          <mxGeometry x="290" y="349" width="500" height="4.43" as="geometry" />
        </mxCell>
        <mxCell id="72ID4uftPXcUlblIOjhe-91" value="" style="line;strokeWidth=1;html=1;rounded=0;shadow=0;labelBackgroundColor=none;fillColor=none;fontFamily=Verdana;fontSize=14;fontColor=#000000;align=center;comic=1;" vertex="1" parent="1">
          <mxGeometry x="285" y="480" width="500" height="4.43" as="geometry" />
        </mxCell>
        <mxCell id="72ID4uftPXcUlblIOjhe-92" value="" style="line;strokeWidth=1;html=1;rounded=0;shadow=0;labelBackgroundColor=none;fillColor=none;fontFamily=Verdana;fontSize=14;fontColor=#000000;align=center;comic=1;" vertex="1" parent="1">
          <mxGeometry x="276.5" y="590" width="500" height="4.43" as="geometry" />
        </mxCell>
        <mxCell id="72ID4uftPXcUlblIOjhe-93" value="&lt;b&gt;이름&lt;/b&gt;" style="text;html=1;points=[];align=left;verticalAlign=top;spacingTop=-4;fontSize=14;fontFamily=Verdana" vertex="1" parent="1">
          <mxGeometry x="290" y="261" width="170" height="20" as="geometry" />
        </mxCell>
        <mxCell id="72ID4uftPXcUlblIOjhe-94" value="&lt;font color=&quot;rgba(0, 0, 0, 0)&quot; face=&quot;monospace&quot;&gt;&lt;span style=&quot;font-size: 0px&quot;&gt;제목&lt;/span&gt;&lt;/font&gt;" style="text;html=1;points=[];align=left;verticalAlign=top;spacingTop=-4;fontSize=14;fontFamily=Verdana" vertex="1" parent="1">
          <mxGeometry x="290" y="277" width="170" height="20" as="geometry" />
        </mxCell>
        <mxCell id="72ID4uftPXcUlblIOjhe-95" value="제목" style="text;html=1;points=[];align=left;verticalAlign=top;spacingTop=-4;fontSize=14;fontFamily=Verdana" vertex="1" parent="1">
          <mxGeometry x="290" y="288" width="170" height="20" as="geometry" />
        </mxCell>
        <mxCell id="72ID4uftPXcUlblIOjhe-97" value="&amp;lt;클레스 이름&amp;gt;" style="text;html=1;strokeColor=none;fillColor=none;align=center;verticalAlign=middle;whiteSpace=wrap;rounded=0;" vertex="1" parent="1">
          <mxGeometry x="270" y="230" width="90" height="20" as="geometry" />
        </mxCell>
        <mxCell id="72ID4uftPXcUlblIOjhe-98" value="&amp;lt;클레스 이름&amp;gt;" style="text;html=1;strokeColor=none;fillColor=none;align=center;verticalAlign=middle;whiteSpace=wrap;rounded=0;" vertex="1" parent="1">
          <mxGeometry x="350" y="265" width="90" height="20" as="geometry" />
        </mxCell>
        <mxCell id="72ID4uftPXcUlblIOjhe-99" value="&amp;lt;클레스 이름&amp;gt;" style="text;html=1;strokeColor=none;fillColor=none;align=center;verticalAlign=middle;whiteSpace=wrap;rounded=0;" vertex="1" parent="1">
          <mxGeometry x="351.5" y="288" width="90" height="20" as="geometry" />
        </mxCell>
        <mxCell id="72ID4uftPXcUlblIOjhe-100" value="댓글 수" style="text;html=1;strokeColor=none;fillColor=none;align=center;verticalAlign=middle;whiteSpace=wrap;rounded=0;" vertex="1" parent="1">
          <mxGeometry x="681.5" y="320" width="90" height="20" as="geometry" />
        </mxCell>
        <mxCell id="72ID4uftPXcUlblIOjhe-101" value="&amp;lt;클레스 이름&amp;gt;" style="text;html=1;strokeColor=none;fillColor=none;align=center;verticalAlign=middle;whiteSpace=wrap;rounded=0;" vertex="1" parent="1">
          <mxGeometry x="680" y="300" width="90" height="20" as="geometry" />
        </mxCell>
        <mxCell id="72ID4uftPXcUlblIOjhe-102" value="조회 수" style="text;html=1;strokeColor=none;fillColor=none;align=center;verticalAlign=middle;whiteSpace=wrap;rounded=0;" vertex="1" parent="1">
          <mxGeometry x="595.75" y="320" width="90" height="20" as="geometry" />
        </mxCell>
        <mxCell id="72ID4uftPXcUlblIOjhe-103" value="&amp;lt;클레스 이름&amp;gt;" style="text;html=1;strokeColor=none;fillColor=none;align=center;verticalAlign=middle;whiteSpace=wrap;rounded=0;" vertex="1" parent="1">
          <mxGeometry x="594.25" y="300" width="90" height="20" as="geometry" />
        </mxCell>
        <mxCell id="72ID4uftPXcUlblIOjhe-105" value="" style="rounded=0;whiteSpace=wrap;html=1;strokeWidth=5;strokeColor=#030217;" vertex="1" parent="1">
          <mxGeometry x="20" y="176" width="220" height="40" as="geometry" />
        </mxCell>
        <mxCell id="677b7b8949515195-27" value="전체보기" style="text;html=1;points=[];align=left;verticalAlign=top;spacingTop=-4;fontSize=14;fontFamily=Verdana" parent="1" vertex="1">
          <mxGeometry x="40" y="186" width="170" height="20" as="geometry" />
        </mxCell>
        <mxCell id="72ID4uftPXcUlblIOjhe-106" value="" style="rounded=0;whiteSpace=wrap;html=1;strokeWidth=5;strokeColor=#030217;" vertex="1" parent="1">
          <mxGeometry x="20" y="217" width="220" height="40" as="geometry" />
        </mxCell>
        <mxCell id="677b7b8949515195-28" value="카테고리 1" style="text;html=1;points=[];align=left;verticalAlign=top;spacingTop=-4;fontSize=14;fontFamily=Verdana" parent="1" vertex="1">
          <mxGeometry x="40" y="222" width="170" height="20" as="geometry" />
        </mxCell>
        <mxCell id="72ID4uftPXcUlblIOjhe-107" value="" style="rounded=0;whiteSpace=wrap;html=1;strokeWidth=5;strokeColor=#030217;" vertex="1" parent="1">
          <mxGeometry x="20" y="253" width="220" height="40" as="geometry" />
        </mxCell>
        <mxCell id="677b7b8949515195-29" value="카테고리 2" style="text;html=1;points=[];align=left;verticalAlign=top;spacingTop=-4;fontSize=14;fontFamily=Verdana" parent="1" vertex="1">
          <mxGeometry x="40" y="257" width="170" height="20" as="geometry" />
        </mxCell>
        <mxCell id="72ID4uftPXcUlblIOjhe-108" value="" style="rounded=0;whiteSpace=wrap;html=1;strokeWidth=5;strokeColor=#030217;" vertex="1" parent="1">
          <mxGeometry x="20" y="289" width="220" height="40" as="geometry" />
        </mxCell>
        <mxCell id="677b7b8949515195-30" value="카테고리 3" style="text;html=1;points=[];align=left;verticalAlign=top;spacingTop=-4;fontSize=14;fontFamily=Verdana" parent="1" vertex="1">
          <mxGeometry x="40" y="293" width="170" height="20" as="geometry" />
        </mxCell>
        <mxCell id="72ID4uftPXcUlblIOjhe-109" value="" style="rounded=0;whiteSpace=wrap;html=1;strokeWidth=5;strokeColor=#030217;" vertex="1" parent="1">
          <mxGeometry x="20" y="329" width="220" height="40" as="geometry" />
        </mxCell>
        <mxCell id="677b7b8949515195-39" value="카테고리 4" style="text;html=1;points=[];align=left;verticalAlign=top;spacingTop=-4;fontSize=14;fontFamily=Verdana" parent="1" vertex="1">
          <mxGeometry x="40" y="329" width="170" height="20" as="geometry" />
        </mxCell>
        <mxCell id="72ID4uftPXcUlblIOjhe-110" value="&amp;lt;클레스 이름&amp;gt;" style="text;html=1;strokeColor=none;fillColor=none;align=center;verticalAlign=middle;whiteSpace=wrap;rounded=0;" vertex="1" parent="1">
          <mxGeometry x="-30" y="130" width="90" height="20" as="geometry" />
        </mxCell>
        <mxCell id="72ID4uftPXcUlblIOjhe-111" value="&amp;lt;클레스 이름&amp;gt;" style="text;html=1;strokeColor=none;fillColor=none;align=center;verticalAlign=middle;whiteSpace=wrap;rounded=0;" vertex="1" parent="1">
          <mxGeometry x="-70" y="186" width="90" height="20" as="geometry" />
        </mxCell>
        <mxCell id="72ID4uftPXcUlblIOjhe-113" value="&amp;lt;클레스 이름&amp;gt;" style="text;html=1;strokeColor=none;fillColor=none;align=center;verticalAlign=middle;whiteSpace=wrap;rounded=0;" vertex="1" parent="1">
          <mxGeometry x="-20" y="-10" width="90" height="20" as="geometry" />
        </mxCell>
        <mxCell id="72ID4uftPXcUlblIOjhe-114" value="&amp;lt;클레스 이름&amp;gt;" style="text;html=1;strokeColor=none;fillColor=none;align=center;verticalAlign=middle;whiteSpace=wrap;rounded=0;" vertex="1" parent="1">
          <mxGeometry x="30" y="40" width="90" height="20" as="geometry" />
        </mxCell>
        <mxCell id="72ID4uftPXcUlblIOjhe-115" value="&amp;lt;클레스 이름&amp;gt;" style="text;html=1;strokeColor=none;fillColor=none;align=center;verticalAlign=middle;whiteSpace=wrap;rounded=0;" vertex="1" parent="1">
          <mxGeometry x="790" y="40" width="90" height="20" as="geometry" />
        </mxCell>
        <mxCell id="72ID4uftPXcUlblIOjhe-116" value="&amp;lt;클레스 이름&amp;gt;" style="text;html=1;strokeColor=none;fillColor=none;align=center;verticalAlign=middle;whiteSpace=wrap;rounded=0;" vertex="1" parent="1">
          <mxGeometry x="940" y="40" width="90" height="20" as="geometry" />
        </mxCell>
        <mxCell id="72ID4uftPXcUlblIOjhe-117" value="&amp;lt;클레스 이름&amp;gt;" style="text;html=1;strokeColor=none;fillColor=none;align=center;verticalAlign=middle;whiteSpace=wrap;rounded=0;" vertex="1" parent="1">
          <mxGeometry x="664.5" y="166" width="90" height="20" as="geometry" />
        </mxCell>
        <mxCell id="72ID4uftPXcUlblIOjhe-119" value="&amp;lt;클레스 이름&amp;gt;" style="text;html=1;strokeColor=none;fillColor=none;align=center;verticalAlign=middle;whiteSpace=wrap;rounded=0;" vertex="1" parent="1">
          <mxGeometry x="250" y="166" width="90" height="20" as="geometry" />
        </mxCell>
        <mxCell id="72ID4uftPXcUlblIOjhe-121" value="&amp;lt;클레스 이름&amp;gt;" style="text;html=1;strokeColor=none;fillColor=none;align=center;verticalAlign=middle;whiteSpace=wrap;rounded=0;" vertex="1" parent="1">
          <mxGeometry x="850" y="160" width="90" height="20" as="geometry" />
        </mxCell>
        <mxCell id="72ID4uftPXcUlblIOjhe-122" value="&amp;lt;클레스 이름&amp;gt;" style="text;html=1;strokeColor=none;fillColor=none;align=center;verticalAlign=middle;whiteSpace=wrap;rounded=0;" vertex="1" parent="1">
          <mxGeometry x="850" y="209" width="90" height="20" as="geometry" />
        </mxCell>
        <mxCell id="72ID4uftPXcUlblIOjhe-124" value="" style="rounded=0;whiteSpace=wrap;html=1;strokeColor=#14FF6A;strokeWidth=5;" vertex="1" parent="1">
          <mxGeometry x="257.25" y="1410" width="332.75" height="40" as="geometry" />
        </mxCell>
        <mxCell id="72ID4uftPXcUlblIOjhe-127" value="게시" style="strokeWidth=1;shadow=0;dashed=0;align=center;html=1;shape=mxgraph.mockup.buttons.button;strokeColor=#666666;fontColor=#ffffff;mainText=;buttonStyle=round;fontSize=15;fontStyle=1;fillColor=#008cff;whiteSpace=wrap;" vertex="1" parent="1">
          <mxGeometry x="710" y="1480" width="86.5" height="40" as="geometry" />
        </mxCell>
        <mxCell id="72ID4uftPXcUlblIOjhe-132" value="&lt;font color=&quot;rgba(0, 0, 0, 0)&quot; face=&quot;monospace&quot;&gt;&lt;span style=&quot;font-size: 0px&quot;&gt;제목&lt;/span&gt;&lt;/font&gt;" style="text;html=1;points=[];align=left;verticalAlign=top;spacingTop=-4;fontSize=14;fontFamily=Verdana" vertex="1" parent="1">
          <mxGeometry x="290" y="1097" width="170" height="20" as="geometry" />
        </mxCell>
        <mxCell id="72ID4uftPXcUlblIOjhe-136" value="&amp;lt;클레스 이름&amp;gt;" style="text;html=1;strokeColor=none;fillColor=none;align=center;verticalAlign=middle;whiteSpace=wrap;rounded=0;" vertex="1" parent="1">
          <mxGeometry x="261.5" y="1091" width="90" height="20" as="geometry" />
        </mxCell>
        <mxCell id="72ID4uftPXcUlblIOjhe-142" value="&amp;lt;클레스 이름&amp;gt;" style="text;html=1;strokeColor=none;fillColor=none;align=center;verticalAlign=middle;whiteSpace=wrap;rounded=0;" vertex="1" parent="1">
          <mxGeometry x="250" y="986" width="90" height="20" as="geometry" />
        </mxCell>
        <mxCell id="72ID4uftPXcUlblIOjhe-143" value="&lt;font style=&quot;font-size: 25px&quot;&gt;Post.js&lt;/font&gt;" style="text;html=1;strokeColor=none;fillColor=none;align=center;verticalAlign=middle;whiteSpace=wrap;rounded=0;" vertex="1" parent="1">
          <mxGeometry x="30" y="910" width="40" height="20" as="geometry" />
        </mxCell>
        <mxCell id="72ID4uftPXcUlblIOjhe-144" value="카테고리" style="strokeWidth=1;shadow=0;dashed=0;align=center;html=1;shape=mxgraph.mockup.forms.comboBox;strokeColor=#999999;fillColor=#ddeeff;align=left;fillColor2=#aaddff;mainText=;fontColor=#666666;fontSize=17;spacingLeft=3;" vertex="1" parent="1">
          <mxGeometry x="270" y="1006" width="150" height="30" as="geometry" />
        </mxCell>
        <mxCell id="72ID4uftPXcUlblIOjhe-145" value="정렬 필터" style="strokeWidth=1;shadow=0;dashed=0;align=center;html=1;shape=mxgraph.mockup.forms.comboBox;strokeColor=#999999;fillColor=#ddeeff;align=left;fillColor2=#aaddff;mainText=;fontColor=#666666;fontSize=17;spacingLeft=3;" vertex="1" parent="1">
          <mxGeometry x="660" y="192" width="150" height="30" as="geometry" />
        </mxCell>
        <mxCell id="72ID4uftPXcUlblIOjhe-146" value="&amp;lt;클레스 이름&amp;gt;" style="text;html=1;strokeColor=none;fillColor=none;align=center;verticalAlign=middle;whiteSpace=wrap;rounded=0;" vertex="1" parent="1">
          <mxGeometry x="416.5" y="196" width="90" height="20" as="geometry" />
        </mxCell>
        <mxCell id="72ID4uftPXcUlblIOjhe-148" value="이메일을 입력해주세요" style="strokeWidth=1;shadow=0;dashed=0;align=center;html=1;shape=mxgraph.mockup.text.textBox;fontColor=#666666;align=left;fontSize=17;spacingLeft=4;spacingTop=-3;strokeColor=#666666;mainText=" vertex="1" parent="1">
          <mxGeometry x="268" y="1060" width="532" height="30" as="geometry" />
        </mxCell>
        <mxCell id="72ID4uftPXcUlblIOjhe-149" value="내용" style="strokeWidth=1;shadow=0;dashed=0;align=center;html=1;shape=mxgraph.mockup.text.textBox;fontColor=#666666;align=left;fontSize=17;spacingLeft=4;spacingTop=-3;strokeColor=#666666;mainText=" vertex="1" parent="1">
          <mxGeometry x="268" y="1110" width="532" height="290" as="geometry" />
        </mxCell>
        <mxCell id="72ID4uftPXcUlblIOjhe-150" value="&amp;lt;클레스 이름&amp;gt;" style="text;html=1;strokeColor=none;fillColor=none;align=center;verticalAlign=middle;whiteSpace=wrap;rounded=0;" vertex="1" parent="1">
          <mxGeometry x="267" y="1036" width="90" height="20" as="geometry" />
        </mxCell>
        <mxCell id="72ID4uftPXcUlblIOjhe-151" value="태그" style="strokeWidth=1;shadow=0;dashed=0;align=center;html=1;shape=mxgraph.mockup.text.textBox;fontColor=#666666;align=left;fontSize=17;spacingLeft=4;spacingTop=-3;strokeColor=#666666;mainText=" vertex="1" parent="1">
          <mxGeometry x="270" y="1420" width="90" height="30" as="geometry" />
        </mxCell>
        <mxCell id="72ID4uftPXcUlblIOjhe-152" value="태그" style="strokeWidth=1;shadow=0;dashed=0;align=center;html=1;shape=mxgraph.mockup.text.textBox;fontColor=#666666;align=left;fontSize=17;spacingLeft=4;spacingTop=-3;strokeColor=#666666;mainText=" vertex="1" parent="1">
          <mxGeometry x="370" y="1420" width="90" height="30" as="geometry" />
        </mxCell>
        <mxCell id="72ID4uftPXcUlblIOjhe-153" value="태그" style="strokeWidth=1;shadow=0;dashed=0;align=center;html=1;shape=mxgraph.mockup.text.textBox;fontColor=#666666;align=left;fontSize=17;spacingLeft=4;spacingTop=-3;strokeColor=#666666;mainText=" vertex="1" parent="1">
          <mxGeometry x="470" y="1420" width="90" height="30" as="geometry" />
        </mxCell>
        <mxCell id="72ID4uftPXcUlblIOjhe-154" value="참여자" style="strokeWidth=1;shadow=0;dashed=0;align=center;html=1;shape=mxgraph.mockup.text.textBox;fontColor=#666666;align=left;fontSize=17;spacingLeft=4;spacingTop=-3;strokeColor=#666666;mainText=" vertex="1" parent="1">
          <mxGeometry x="270" y="1460" width="90" height="30" as="geometry" />
        </mxCell>
        <mxCell id="72ID4uftPXcUlblIOjhe-155" value="참여자" style="strokeWidth=1;shadow=0;dashed=0;align=center;html=1;shape=mxgraph.mockup.text.textBox;fontColor=#666666;align=left;fontSize=17;spacingLeft=4;spacingTop=-3;strokeColor=#666666;mainText=" vertex="1" parent="1">
          <mxGeometry x="370" y="1460" width="90" height="30" as="geometry" />
        </mxCell>
        <mxCell id="72ID4uftPXcUlblIOjhe-156" value="참여자" style="strokeWidth=1;shadow=0;dashed=0;align=center;html=1;shape=mxgraph.mockup.text.textBox;fontColor=#666666;align=left;fontSize=17;spacingLeft=4;spacingTop=-3;strokeColor=#666666;mainText=" vertex="1" parent="1">
          <mxGeometry x="470" y="1460" width="90" height="30" as="geometry" />
        </mxCell>
        <mxCell id="72ID4uftPXcUlblIOjhe-159" value="&amp;lt;클레스 이름&amp;gt;" style="text;html=1;strokeColor=none;fillColor=none;align=center;verticalAlign=middle;whiteSpace=wrap;rounded=0;" vertex="1" parent="1">
          <mxGeometry x="160" y="1425" width="90" height="20" as="geometry" />
        </mxCell>
        <mxCell id="72ID4uftPXcUlblIOjhe-160" value="&amp;lt;클레스 이름&amp;gt;" style="text;html=1;strokeColor=none;fillColor=none;align=center;verticalAlign=middle;whiteSpace=wrap;rounded=0;" vertex="1" parent="1">
          <mxGeometry x="171.5" y="1465" width="90" height="20" as="geometry" />
        </mxCell>
        <mxCell id="72ID4uftPXcUlblIOjhe-161" value="취소" style="strokeWidth=1;shadow=0;dashed=0;align=center;html=1;shape=mxgraph.mockup.buttons.button;strokeColor=#666666;fontColor=#ffffff;mainText=;buttonStyle=round;fontSize=15;fontStyle=1;fillColor=#008cff;whiteSpace=wrap;" vertex="1" parent="1">
          <mxGeometry x="616" y="1480" width="84" height="40" as="geometry" />
        </mxCell>
        <mxCell id="72ID4uftPXcUlblIOjhe-163" value="&amp;lt;div? 이름&amp;gt;" style="text;html=1;strokeColor=none;fillColor=none;align=center;verticalAlign=middle;whiteSpace=wrap;rounded=0;" vertex="1" parent="1">
          <mxGeometry x="261.5" y="1400" width="90" height="20" as="geometry" />
        </mxCell>
        <mxCell id="72ID4uftPXcUlblIOjhe-164" value="&amp;lt;div? 이름&amp;gt;" style="text;html=1;strokeColor=none;fillColor=none;align=center;verticalAlign=middle;whiteSpace=wrap;rounded=0;" vertex="1" parent="1">
          <mxGeometry x="261.5" y="1496" width="90" height="20" as="geometry" />
        </mxCell>
        <mxCell id="72ID4uftPXcUlblIOjhe-165" value="" style="rounded=0;whiteSpace=wrap;html=1;strokeWidth=5;strokeColor=#FF3333;" vertex="1" parent="1">
          <mxGeometry x="1590" y="1440" width="332.5" height="40" as="geometry" />
        </mxCell>
        <mxCell id="72ID4uftPXcUlblIOjhe-167" value="" style="rounded=0;whiteSpace=wrap;html=1;strokeColor=#14FF6A;strokeWidth=5;" vertex="1" parent="1">
          <mxGeometry x="1490" y="1300" width="547.75" height="204" as="geometry" />
        </mxCell>
        <mxCell id="72ID4uftPXcUlblIOjhe-169" value="&lt;font color=&quot;rgba(0, 0, 0, 0)&quot; face=&quot;monospace&quot;&gt;&lt;span style=&quot;font-size: 0px&quot;&gt;제목&lt;/span&gt;&lt;/font&gt;" style="text;html=1;points=[];align=left;verticalAlign=top;spacingTop=-4;fontSize=14;fontFamily=Verdana" vertex="1" parent="1">
          <mxGeometry x="1521" y="1107" width="170" height="20" as="geometry" />
        </mxCell>
        <mxCell id="72ID4uftPXcUlblIOjhe-171" value="&amp;lt;클레스 이름&amp;gt;" style="text;html=1;strokeColor=none;fillColor=none;align=center;verticalAlign=middle;whiteSpace=wrap;rounded=0;" vertex="1" parent="1">
          <mxGeometry x="1561" y="1300" width="90" height="20" as="geometry" />
        </mxCell>
        <mxCell id="72ID4uftPXcUlblIOjhe-173" value="입력" style="strokeWidth=1;shadow=0;dashed=0;align=center;html=1;shape=mxgraph.mockup.text.textBox;fontColor=#666666;align=left;fontSize=17;spacingLeft=4;spacingTop=-3;strokeColor=#666666;mainText=" vertex="1" parent="1">
          <mxGeometry x="1500.75" y="1325" width="440" height="30" as="geometry" />
        </mxCell>
        <mxCell id="72ID4uftPXcUlblIOjhe-182" value="목록으로" style="strokeWidth=1;shadow=0;dashed=0;align=center;html=1;shape=mxgraph.mockup.buttons.button;strokeColor=#666666;fontColor=#ffffff;mainText=;buttonStyle=round;fontSize=15;fontStyle=1;fillColor=#008cff;whiteSpace=wrap;" vertex="1" parent="1">
          <mxGeometry x="1956" y="1520" width="84" height="30" as="geometry" />
        </mxCell>
        <mxCell id="72ID4uftPXcUlblIOjhe-185" value="" style="whiteSpace=wrap;html=1;rounded=0;shadow=0;labelBackgroundColor=none;strokeColor=#000000;strokeWidth=1;fillColor=none;fontFamily=Verdana;fontSize=12;fontColor=#000000;align=center;comic=1;" vertex="1" parent="1">
          <mxGeometry x="1260" y="950" width="970" height="620" as="geometry" />
        </mxCell>
        <mxCell id="72ID4uftPXcUlblIOjhe-186" value="ContentDetail.js" style="text;html=1;strokeColor=none;fillColor=none;align=center;verticalAlign=middle;whiteSpace=wrap;rounded=0;fontSize=19;" vertex="1" parent="1">
          <mxGeometry x="1260" y="910" width="160" height="20" as="geometry" />
        </mxCell>
        <mxCell id="72ID4uftPXcUlblIOjhe-189" value="" style="whiteSpace=wrap;html=1;rounded=0;shadow=0;labelBackgroundColor=none;strokeWidth=1;fillColor=none;fontFamily=Verdana;fontSize=12;align=center;comic=1;" vertex="1" parent="1">
          <mxGeometry x="1500" y="991" width="530" height="294" as="geometry" />
        </mxCell>
        <mxCell id="72ID4uftPXcUlblIOjhe-190" value="작성" style="strokeWidth=1;shadow=0;dashed=0;align=center;html=1;shape=mxgraph.mockup.buttons.button;strokeColor=#666666;fontColor=#ffffff;mainText=;buttonStyle=round;fontSize=15;fontStyle=1;fillColor=#008cff;whiteSpace=wrap;" vertex="1" parent="1">
          <mxGeometry x="1956.75" y="1320" width="76.5" height="35" as="geometry" />
        </mxCell>
        <mxCell id="72ID4uftPXcUlblIOjhe-191" value="" style="line;strokeWidth=1;html=1;rounded=0;shadow=0;labelBackgroundColor=none;fillColor=none;fontFamily=Verdana;fontSize=14;fontColor=#000000;align=center;comic=1;" vertex="1" parent="1">
          <mxGeometry x="1508" y="1415" width="520" height="4.91" as="geometry" />
        </mxCell>
        <mxCell id="72ID4uftPXcUlblIOjhe-192" value="댓글 : 0" style="text;html=1;strokeColor=none;fillColor=none;align=center;verticalAlign=middle;whiteSpace=wrap;rounded=0;fontSize=19;" vertex="1" parent="1">
          <mxGeometry x="1500" y="1300" width="70" height="20" as="geometry" />
        </mxCell>
        <mxCell id="72ID4uftPXcUlblIOjhe-195" value="" style="rounded=0;whiteSpace=wrap;html=1;strokeColor=#FF3333;strokeWidth=5;fontSize=19;align=left;" vertex="1" parent="1">
          <mxGeometry x="1494.5" y="1360" width="530" height="55" as="geometry" />
        </mxCell>
        <mxCell id="72ID4uftPXcUlblIOjhe-170" value="&amp;lt;클레스 이름&amp;gt;" style="text;html=1;strokeColor=none;fillColor=none;align=center;verticalAlign=middle;whiteSpace=wrap;rounded=0;" vertex="1" parent="1">
          <mxGeometry x="1570" y="1360" width="90" height="20" as="geometry" />
        </mxCell>
        <mxCell id="72ID4uftPXcUlblIOjhe-175" value="&amp;lt;클레스 이름&amp;gt;" style="text;html=1;strokeColor=none;fillColor=none;align=center;verticalAlign=middle;whiteSpace=wrap;rounded=0;" vertex="1" parent="1">
          <mxGeometry x="1570" y="1380" width="90" height="20" as="geometry" />
        </mxCell>
        <mxCell id="72ID4uftPXcUlblIOjhe-184" value="이름" style="text;html=1;strokeColor=none;fillColor=none;align=left;verticalAlign=middle;whiteSpace=wrap;rounded=0;" vertex="1" parent="1">
          <mxGeometry x="1508" y="1360" width="90" height="20" as="geometry" />
        </mxCell>
        <mxCell id="72ID4uftPXcUlblIOjhe-193" value="댓글내용" style="text;html=1;strokeColor=none;fillColor=none;align=left;verticalAlign=middle;whiteSpace=wrap;rounded=0;" vertex="1" parent="1">
          <mxGeometry x="1508" y="1380" width="90" height="20" as="geometry" />
        </mxCell>
        <mxCell id="72ID4uftPXcUlblIOjhe-197" value="&amp;lt;클레스 이름&amp;gt;" style="text;html=1;strokeColor=none;fillColor=none;align=center;verticalAlign=middle;whiteSpace=wrap;rounded=0;" vertex="1" parent="1">
          <mxGeometry x="1410" y="1330" width="90" height="20" as="geometry" />
        </mxCell>
        <mxCell id="72ID4uftPXcUlblIOjhe-198" value="&amp;lt;클레스 이름&amp;gt;" style="text;html=1;strokeColor=none;fillColor=none;align=center;verticalAlign=middle;whiteSpace=wrap;rounded=0;" vertex="1" parent="1">
          <mxGeometry x="1404.5" y="1377.5" width="90" height="20" as="geometry" />
        </mxCell>
        <mxCell id="72ID4uftPXcUlblIOjhe-199" value="&amp;lt;클레스 이름&amp;gt;" style="text;html=1;strokeColor=none;fillColor=none;align=center;verticalAlign=middle;whiteSpace=wrap;rounded=0;" vertex="1" parent="1">
          <mxGeometry x="1953" y="1500" width="90" height="20" as="geometry" />
        </mxCell>
        <mxCell id="72ID4uftPXcUlblIOjhe-200" value="&amp;lt;클레스 이름&amp;gt;" style="text;html=1;strokeColor=none;fillColor=none;align=center;verticalAlign=middle;whiteSpace=wrap;rounded=0;" vertex="1" parent="1">
          <mxGeometry x="1938" y="1300" width="90" height="20" as="geometry" />
        </mxCell>
        <mxCell id="72ID4uftPXcUlblIOjhe-201" value="&amp;lt;클레스 이름&amp;gt;" style="text;html=1;strokeColor=none;fillColor=none;align=center;verticalAlign=middle;whiteSpace=wrap;rounded=0;" vertex="1" parent="1">
          <mxGeometry x="1494.5" y="971" width="90" height="20" as="geometry" />
        </mxCell>
        <mxCell id="72ID4uftPXcUlblIOjhe-203" value="이름" style="text;html=1;strokeColor=none;fillColor=none;align=center;verticalAlign=middle;whiteSpace=wrap;rounded=0;" vertex="1" parent="1">
          <mxGeometry x="1510" y="1016" width="90" height="20" as="geometry" />
        </mxCell>
        <mxCell id="72ID4uftPXcUlblIOjhe-204" value="제목" style="text;html=1;strokeColor=none;fillColor=none;align=center;verticalAlign=middle;whiteSpace=wrap;rounded=0;" vertex="1" parent="1">
          <mxGeometry x="1510" y="1040" width="90" height="20" as="geometry" />
        </mxCell>
        <mxCell id="72ID4uftPXcUlblIOjhe-205" value="내용 전체" style="text;html=1;strokeColor=none;fillColor=none;align=center;verticalAlign=middle;whiteSpace=wrap;rounded=0;" vertex="1" parent="1">
          <mxGeometry x="1510" y="1060" width="90" height="20" as="geometry" />
        </mxCell>
        <mxCell id="72ID4uftPXcUlblIOjhe-206" value="삭제" style="strokeWidth=1;shadow=0;dashed=0;align=center;html=1;shape=mxgraph.mockup.buttons.button;strokeColor=#666666;fontColor=#ffffff;mainText=;buttonStyle=round;fontSize=15;fontStyle=1;fillColor=#008cff;whiteSpace=wrap;" vertex="1" parent="1">
          <mxGeometry x="1869" y="1006" width="76.5" height="35" as="geometry" />
        </mxCell>
        <mxCell id="72ID4uftPXcUlblIOjhe-207" value="수정" style="strokeWidth=1;shadow=0;dashed=0;align=center;html=1;shape=mxgraph.mockup.buttons.button;strokeColor=#666666;fontColor=#ffffff;mainText=;buttonStyle=round;fontSize=15;fontStyle=1;fillColor=#008cff;whiteSpace=wrap;" vertex="1" parent="1">
          <mxGeometry x="1948" y="1006" width="76.5" height="35" as="geometry" />
        </mxCell>
        <mxCell id="72ID4uftPXcUlblIOjhe-208" value="&amp;lt;클레스 이름&amp;gt;" style="text;html=1;strokeColor=none;fillColor=none;align=center;verticalAlign=middle;whiteSpace=wrap;rounded=0;" vertex="1" parent="1">
          <mxGeometry x="1620" y="1016" width="90" height="20" as="geometry" />
        </mxCell>
        <mxCell id="72ID4uftPXcUlblIOjhe-209" value="&amp;lt;클레스 이름&amp;gt;" style="text;html=1;strokeColor=none;fillColor=none;align=center;verticalAlign=middle;whiteSpace=wrap;rounded=0;" vertex="1" parent="1">
          <mxGeometry x="1623" y="1036" width="90" height="20" as="geometry" />
        </mxCell>
        <mxCell id="72ID4uftPXcUlblIOjhe-210" value="&amp;lt;클레스 이름&amp;gt;" style="text;html=1;strokeColor=none;fillColor=none;align=center;verticalAlign=middle;whiteSpace=wrap;rounded=0;" vertex="1" parent="1">
          <mxGeometry x="1623" y="1060" width="90" height="20" as="geometry" />
        </mxCell>
        <mxCell id="72ID4uftPXcUlblIOjhe-211" value="&amp;lt;클레스 이름&amp;gt;" style="text;html=1;strokeColor=none;fillColor=none;align=center;verticalAlign=middle;whiteSpace=wrap;rounded=0;" vertex="1" parent="1">
          <mxGeometry x="1855.5" y="1050" width="90" height="20" as="geometry" />
        </mxCell>
        <mxCell id="72ID4uftPXcUlblIOjhe-212" value="&amp;lt;클레스 이름&amp;gt;" style="text;html=1;strokeColor=none;fillColor=none;align=center;verticalAlign=middle;whiteSpace=wrap;rounded=0;" vertex="1" parent="1">
          <mxGeometry x="1940.75" y="1050" width="90" height="20" as="geometry" />
        </mxCell>
        <mxCell id="72ID4uftPXcUlblIOjhe-213" value="수정" style="strokeWidth=1;shadow=0;dashed=0;align=center;html=1;shape=mxgraph.mockup.buttons.button;strokeColor=#666666;fontColor=#ffffff;mainText=;buttonStyle=round;fontSize=15;fontStyle=1;fillColor=#008cff;whiteSpace=wrap;" vertex="1" parent="1">
          <mxGeometry x="1940.75" y="1375" width="76.5" height="35" as="geometry" />
        </mxCell>
        <mxCell id="72ID4uftPXcUlblIOjhe-214" value="&amp;lt;클레스 이름&amp;gt;" style="text;html=1;strokeColor=none;fillColor=none;align=center;verticalAlign=middle;whiteSpace=wrap;rounded=0;" vertex="1" parent="1">
          <mxGeometry x="1929.25" y="1357.5" width="90" height="20" as="geometry" />
        </mxCell>
        <mxCell id="72ID4uftPXcUlblIOjhe-215" value="Login.js" style="text;html=1;strokeColor=none;fillColor=none;align=center;verticalAlign=middle;whiteSpace=wrap;rounded=0;fontSize=19;" vertex="1" parent="1">
          <mxGeometry x="10" y="-950" width="40" height="20" as="geometry" />
        </mxCell>
        <mxCell id="72ID4uftPXcUlblIOjhe-216" value="Mypage.js" style="text;html=1;strokeColor=none;fillColor=none;align=center;verticalAlign=middle;whiteSpace=wrap;rounded=0;fontSize=19;" vertex="1" parent="1">
          <mxGeometry x="2270" y="-950" width="110" height="20" as="geometry" />
        </mxCell>
        <mxCell id="72ID4uftPXcUlblIOjhe-217" value="Listup.js" style="text;html=1;strokeColor=none;fillColor=none;align=center;verticalAlign=middle;whiteSpace=wrap;rounded=0;fontSize=19;" vertex="1" parent="1">
          <mxGeometry x="-5" y="-40" width="110" height="20" as="geometry" />
        </mxCell>
        <mxCell id="72ID4uftPXcUlblIOjhe-218" value="" style="rounded=0;whiteSpace=wrap;html=1;strokeWidth=5;strokeColor=#14FF6A;" vertex="1" parent="1">
          <mxGeometry x="2603" y="-780" width="407" height="300" as="geometry" />
        </mxCell>
        <mxCell id="72ID4uftPXcUlblIOjhe-220" value="" style="whiteSpace=wrap;html=1;rounded=0;shadow=0;labelBackgroundColor=none;strokeWidth=1;fillColor=none;fontFamily=Verdana;fontSize=12;align=center;comic=1;" vertex="1" parent="1">
          <mxGeometry x="2570" y="-830" width="467" height="620" as="geometry" />
        </mxCell>
        <mxCell id="72ID4uftPXcUlblIOjhe-221" value="" style="rounded=0;whiteSpace=wrap;html=1;strokeWidth=5;strokeColor=#FF2908;" vertex="1" parent="1">
          <mxGeometry x="2624.5" y="-760" width="365.5" height="140" as="geometry" />
        </mxCell>
        <mxCell id="72ID4uftPXcUlblIOjhe-223" value="********" style="strokeWidth=1;shadow=0;dashed=0;align=center;html=1;shape=mxgraph.mockup.forms.pwField;strokeColor=#999999;mainText=;align=left;fontColor=#666666;fontSize=17;spacingLeft=3;" vertex="1" parent="1">
          <mxGeometry x="2658.5" y="-680" width="291.5" height="30" as="geometry" />
        </mxCell>
        <mxCell id="72ID4uftPXcUlblIOjhe-224" value="이메일을 입력해주세요" style="strokeWidth=1;shadow=0;dashed=0;align=center;html=1;shape=mxgraph.mockup.text.textBox;fontColor=#666666;align=left;fontSize=17;spacingLeft=4;spacingTop=-3;strokeColor=#666666;mainText=" vertex="1" parent="1">
          <mxGeometry x="2660" y="-730" width="290" height="30" as="geometry" />
        </mxCell>
        <mxCell id="72ID4uftPXcUlblIOjhe-225" value="수정하기" style="strokeWidth=1;shadow=0;dashed=0;align=center;html=1;shape=mxgraph.mockup.buttons.button;strokeColor=#666666;fontColor=#ffffff;mainText=;buttonStyle=round;fontSize=17;fontStyle=1;fillColor=#008cff;whiteSpace=wrap;" vertex="1" parent="1">
          <mxGeometry x="2680" y="-590" width="238.5" height="40" as="geometry" />
        </mxCell>
        <mxCell id="72ID4uftPXcUlblIOjhe-228" value="&amp;lt;클래스 네임&amp;gt;" style="text;html=1;strokeColor=none;fillColor=none;align=center;verticalAlign=middle;whiteSpace=wrap;rounded=0;" vertex="1" parent="1">
          <mxGeometry x="2693.5" y="-610" width="90" height="20" as="geometry" />
        </mxCell>
        <mxCell id="72ID4uftPXcUlblIOjhe-233" value="&amp;lt;클래스 네임&amp;gt;" style="text;html=1;strokeColor=none;fillColor=none;align=center;verticalAlign=middle;whiteSpace=wrap;rounded=0;" vertex="1" parent="1">
          <mxGeometry x="2590" y="-810" width="90" height="20" as="geometry" />
        </mxCell>
        <mxCell id="72ID4uftPXcUlblIOjhe-234" value="&amp;lt;클래스 네임&amp;gt;" style="text;html=1;strokeColor=none;fillColor=none;align=center;verticalAlign=middle;whiteSpace=wrap;rounded=0;" vertex="1" parent="1">
          <mxGeometry x="2658.5" y="-750" width="90" height="20" as="geometry" />
        </mxCell>
        <mxCell id="72ID4uftPXcUlblIOjhe-235" value="&amp;lt;클래스 네임&amp;gt;" style="text;html=1;strokeColor=none;fillColor=none;align=center;verticalAlign=middle;whiteSpace=wrap;rounded=0;" vertex="1" parent="1">
          <mxGeometry x="2658.5" y="-700" width="90" height="20" as="geometry" />
        </mxCell>
      </root>
    </mxGraphModel>
  </diagram>
</mxfile>
